<?xml version="1.0" standalone="no"?>
<!DOCTYPE svg PUBLIC "-//W3C//DTD SVG 20010904//EN"
 "http://www.w3.org/TR/2001/REC-SVG-20010904/DTD/svg10.dtd">
<svg version="1.0" xmlns="http://www.w3.org/2000/svg"
 width="512.000000pt" height="512.000000pt" viewBox="0 0 512.000000 512.000000"
 preserveAspectRatio="xMidYMid meet">
<metadata>
Created by potrace 1.14, written by Peter Selinger 2001-2017
</metadata>
<g transform="translate(0.000000,512.000000) scale(0.100000,-0.100000)"
fill="#000000" stroke="none">
<path d="M0 3456 l0 -1664 42 0 c22 -1 45 -7 49 -14 7 -10 9 -10 9 0 0 9 5 10
19 2 11 -6 22 -6 25 -1 7 11 65 22 131 25 55 2 97 13 106 29 10 15 109 21 109
6 0 -8 4 -8 13 -2 6 6 32 10 56 10 24 1 47 6 50 12 4 6 20 12 35 13 17 2 35
12 44 26 10 16 23 22 41 20 48 -4 121 13 121 29 0 11 7 14 22 10 11 -3 36 0
54 8 18 7 35 11 38 7 3 -3 6 0 6 6 0 7 10 12 23 12 37 0 67 12 67 26 0 21 14
25 112 31 51 3 95 9 96 14 2 5 13 9 24 9 19 0 43 17 45 33 3 16 9 23 41 40 28
16 32 16 32 3 0 -9 -5 -16 -11 -16 -5 0 -8 -4 -5 -9 4 -5 0 -12 -6 -14 -8 -3
-8 -6 -2 -6 31 -2 88 81 99 144 9 54 15 74 36 120 8 18 16 49 37 154 4 19 14
35 22 37 30 5 90 34 90 44 0 6 6 10 13 10 6 0 23 9 37 20 21 17 23 21 10 30
-10 6 -11 10 -3 10 9 0 10 7 3 28 -9 25 -9 26 5 8 22 -28 18 -65 -7 -87 -14
-11 -18 -18 -10 -19 7 0 19 -6 26 -13 11 -11 6 -13 -25 -14 -52 -2 -115 -21
-134 -39 -11 -12 -15 -38 -15 -109 0 -86 2 -94 23 -108 19 -12 28 -34 42 -99
20 -95 36 -139 70 -188 21 -31 44 -120 31 -120 -3 0 -15 8 -27 17 -77 63 -87
69 -36 22 77 -72 73 -95 -5 -27 -67 57 -65 51 17 -58 18 -23 40 -70 49 -105
10 -35 23 -70 28 -77 8 -9 7 -11 -6 -6 -9 3 -16 11 -16 18 0 6 -23 18 -50 28
-57 18 -64 16 -20 -7 17 -9 36 -31 45 -51 20 -49 19 -52 -7 -19 -26 33 -96 85
-115 85 -7 0 7 -21 32 -47 68 -70 84 -107 86 -199 2 -44 6 -83 10 -89 3 -5 10
-21 14 -35 7 -24 5 -23 -21 7 -34 38 -101 83 -122 83 -9 0 2 -15 26 -35 36
-32 101 -139 90 -150 -2 -2 -26 11 -53 30 -28 18 -61 36 -75 39 -23 6 -24 6
-5 -6 11 -7 48 -40 82 -72 62 -58 74 -84 53 -116 -8 -12 -15 -9 -44 19 -56 54
-52 30 6 -40 45 -55 53 -71 59 -119 3 -30 5 -56 4 -57 -1 -2 -27 11 -58 28
-31 17 -57 28 -57 25 0 -3 20 -24 44 -46 24 -22 56 -58 71 -80 26 -37 26 -41
12 -69 -13 -27 -13 -32 0 -42 14 -12 43 -62 43 -74 0 -3 -7 -5 -15 -5 -8 0
-15 5 -15 10 0 6 -5 10 -10 10 -7 0 -8 -6 -3 -14 8 -14 125 -110 153 -126 23
-13 4 -23 -20 -10 -31 16 -39 3 -10 -17 13 -9 30 -24 37 -32 45 -52 64 -82 57
-92 -10 -17 -87 -4 -212 35 -119 37 -276 57 -452 56 -58 -1 -123 0 -145 1
-101 5 -198 -5 -405 -41 -30 -5 -81 -12 -113 -15 -98 -11 -133 -63 -55 -83 98
-24 139 -32 176 -32 22 0 68 -11 103 -24 62 -23 188 -39 389 -51 47 -2 132 -9
190 -15 58 -5 155 -15 215 -20 61 -6 146 -14 190 -19 162 -18 959 -20 992 -3
11 6 49 14 84 17 136 12 175 17 209 25 19 4 47 11 63 14 37 9 34 26 -4 26 -43
0 -199 42 -193 52 3 4 19 8 35 8 24 0 45 14 92 59 34 32 83 69 108 80 26 12
57 33 69 47 28 29 19 31 -18 5 -29 -20 -107 -61 -117 -61 -17 0 12 23 55 45
40 20 55 36 94 104 25 44 55 105 67 136 11 30 36 78 55 107 19 28 37 55 40 60
4 5 -15 -7 -41 -26 -25 -20 -51 -36 -57 -36 -5 0 -19 -10 -30 -22 -17 -20 -17
-18 3 17 12 22 32 51 45 65 29 32 44 72 43 113 l-1 32 -11 -32 c-13 -35 -33
-60 -42 -51 -4 3 3 21 14 39 25 41 16 58 -15 28 l-25 -23 3 34 c2 29 0 34 -14
32 -26 -4 -22 5 16 39 34 29 116 135 99 127 -47 -22 -62 -36 -85 -77 -24 -41
-68 -93 -68 -79 0 3 8 23 17 44 9 22 16 43 14 48 -4 16 29 55 50 58 27 4 57
43 65 85 7 34 2 36 -46 15 -19 -7 -28 -7 -39 4 -13 12 -12 17 6 36 30 35 41
57 15 35 -20 -19 -21 -18 -15 5 6 21 5 22 -10 9 -11 -9 -17 -10 -17 -2 0 6
-11 16 -25 23 -18 8 -22 15 -16 27 5 9 11 37 14 63 9 66 46 140 68 133 13 -5
19 5 29 45 15 62 6 78 -11 21 -15 -50 -25 -52 -33 -7 -7 34 -7 34 -34 20 -45
-23 -48 -16 -10 24 45 47 54 65 63 124 5 33 4 48 -4 48 -6 0 -11 -9 -11 -20 0
-19 -11 -26 -22 -14 -3 3 14 38 37 77 29 47 55 111 75 182 26 90 37 115 62
136 l31 26 -8 78 c-10 114 -22 133 -17 28 l4 -90 -46 -47 c-25 -26 -47 -58
-47 -69 -1 -12 -5 16 -9 63 -4 47 -10 99 -14 117 -10 45 -58 88 -119 107 -158
48 -525 48 -579 -1 -12 -10 -34 -36 -49 -57 -38 -52 -37 -36 1 19 37 54 66 75
102 75 15 0 30 5 34 11 5 8 -2 10 -22 6 -25 -5 -898 13 -891 19 1 1 88 4 193
7 105 4 203 11 217 16 15 6 27 8 27 5 0 -2 9 0 20 6 11 6 20 17 20 25 0 11 -5
12 -26 5 -34 -13 -34 -13 -35 13 0 12 -3 16 -6 10 -7 -18 -58 -16 -73 2 -7 8
-19 15 -27 15 -32 0 -4 25 37 33 38 8 51 5 96 -17 56 -28 68 -40 78 -72 5 -16
0 -23 -21 -31 -22 -9 16 -11 174 -11 114 0 205 4 208 9 4 5 0 9 -7 9 -56 1
-38 68 26 98 57 27 124 44 139 36 62 -38 157 -123 151 -138 -3 -8 13 -12 49
-14 l54 -2 6 47 c7 60 1 66 -18 20 -8 -21 -18 -37 -22 -37 -3 0 -20 10 -37 23
-17 12 -48 31 -68 41 -21 10 -44 26 -52 35 -8 9 -25 27 -37 40 l-22 24 24 45
c13 25 35 54 49 64 24 18 28 18 64 3 21 -9 40 -15 41 -13 7 7 9 88 2 94 -4 4
-7 -9 -7 -29 0 -43 -14 -47 -82 -21 -104 39 -137 64 -153 115 -4 10 -11 19
-16 19 -6 0 -7 -4 -4 -10 3 -5 -4 -10 -16 -10 -29 0 -128 54 -106 58 9 2 25
-2 36 -7 11 -6 32 -11 48 -11 15 0 60 -7 98 -15 134 -30 142 -30 126 -12 -7 9
-17 14 -22 11 -19 -11 -8 31 14 54 l22 24 -25 -7 c-14 -4 -38 -14 -53 -22 -16
-8 -31 -12 -35 -9 -9 10 27 42 69 61 25 12 35 21 28 26 -7 4 -17 5 -23 3 -7
-3 -12 5 -13 17 -1 12 -4 24 -7 27 -3 3 -42 -23 -87 -57 -44 -35 -76 -55 -70
-44 24 45 149 139 174 130 6 -2 29 4 49 14 48 24 156 26 204 3 38 -18 104 -87
104 -108 0 -8 -6 -16 -12 -19 -7 -2 -9 -8 -5 -13 12 -12 28 17 24 44 -5 28 1
28 12 0 8 -21 10 -20 30 20 13 26 20 52 16 65 -6 20 -5 21 8 5 12 -16 14 -13
15 25 1 23 4 54 8 70 4 18 -1 39 -17 65 l-23 37 22 -19 c18 -16 25 -17 35 -7
9 10 8 11 -8 5 -20 -7 -20 -7 -1 14 11 12 16 22 11 22 -4 0 -1 8 6 17 12 15
12 16 -5 9 -19 -7 -19 -6 -1 14 10 11 15 23 12 27 -4 3 -7 1 -7 -5 0 -22 -30
-12 -40 13 -5 14 -17 25 -25 25 -9 0 -13 -5 -10 -10 4 -6 11 -8 16 -5 5 4 9 1
9 -4 0 -14 -1 -14 -43 4 -24 10 -38 11 -42 4 -4 -5 -21 -8 -38 -5 -20 4 -25 3
-14 -2 17 -7 16 -9 -6 -31 -22 -19 -39 -27 -69 -30 -5 -1 -8 -6 -8 -12 0 -7
15 -9 43 -5 l42 6 -42 -14 c-23 -7 -54 -16 -70 -20 -26 -6 -26 -5 -8 6 24 15
30 35 10 35 -7 0 -11 -6 -8 -12 2 -7 -3 -15 -12 -19 -9 -3 -13 -10 -10 -16 3
-5 2 -10 -4 -10 -5 0 -13 5 -16 10 -4 6 -11 7 -17 4 -7 -4 -8 -2 -4 5 4 6 11
9 15 7 4 -3 13 5 21 17 12 21 12 21 -5 7 -15 -12 -14 -7 6 30 23 42 27 45 79
53 30 4 67 6 83 4 41 -6 32 11 -13 23 -59 16 -51 33 13 28 68 -6 125 -33 133
-64 3 -13 9 -24 11 -24 11 0 32 35 33 55 1 11 4 14 7 8 2 -7 10 -13 16 -13 5
0 7 3 4 7 -4 3 -2 12 3 18 7 9 7 21 0 39 -13 34 -13 76 -1 76 19 0 23 41 7 65
-23 35 -54 31 -119 -15 -53 -39 -85 -52 -72 -29 5 7 -6 9 -31 7 -39 -3 -39 -3
-129 -160 -102 -178 -117 -196 -184 -228 -33 -15 -55 -34 -70 -60 -35 -63 -57
-72 -26 -10 16 30 40 92 55 138 l27 82 -46 -36 c-25 -20 -72 -64 -104 -98 -48
-51 -56 -56 -47 -31 15 39 33 59 99 108 l54 40 -27 14 c-36 19 -179 27 -208
12 -13 -6 -38 -25 -56 -42 -27 -27 -32 -28 -30 -12 2 11 -18 63 -44 115 -25
52 -65 146 -89 208 -23 62 -44 111 -45 109 -5 -5 30 -120 70 -231 20 -55 34
-102 31 -104 -2 -3 -9 6 -14 19 -37 98 -74 185 -78 189 -6 5 5 -63 14 -86 3
-8 1 -14 -5 -14 -12 0 -11 -2 -66 215 -24 94 -56 197 -72 230 -15 33 -34 73
-41 89 -10 21 15 2 84 -65 137 -131 161 -159 219 -254 44 -72 53 -81 58 -62 9
35 7 114 -3 99 -12 -20 -21 20 -21 98 0 73 -18 254 -30 315 -6 25 -7 -16 -4
-110 3 -82 1 -163 -4 -180 l-9 -30 -6 35 c-6 37 -21 607 -22 841 0 124 1 133
14 105 31 -72 102 -294 112 -355 7 -36 21 -105 33 -152 l22 -86 25 21 c13 12
51 53 84 91 186 217 311 333 424 393 44 24 83 47 86 52 3 6 -29 -9 -72 -32
-73 -38 -133 -81 -191 -135 -14 -13 -30 -19 -40 -16 -11 5 -12 8 -4 11 10 3
10 7 1 18 -8 10 -8 14 -1 14 6 0 9 7 6 15 -5 11 -2 13 10 9 12 -5 15 -2 10 11
-6 15 -4 16 16 5 18 -10 21 -9 15 1 -6 9 -2 11 13 7 17 -5 22 -2 22 14 0 10 5
16 10 13 6 -3 12 0 14 7 23 74 41 108 53 104 7 -3 13 -1 13 4 0 6 -5 10 -10
10 -20 0 -5 25 25 42 28 16 -58 17 -1607 18 l-1638 0 0 -1664z m2040 1365 c63
-57 158 -143 210 -190 52 -47 98 -85 102 -83 4 1 7 -1 7 -5 -3 -20 2 -26 11
-13 7 11 8 5 4 -20 -10 -60 -34 -139 -44 -145 -5 -3 -21 15 -35 40 -26 44 -46
64 -25 26 5 -11 10 -23 10 -28 0 -4 -34 44 -75 107 -149 227 -209 315 -264
379 -65 78 -53 70 99 -68z m480 92 c-11 -17 -11 -17 -6 0 3 10 6 24 7 30 0 9
2 9 5 0 3 -7 0 -20 -6 -30z m-19 -50 c-12 -20 -14 -14 -5 12 4 9 9 14 11 11 3
-2 0 -13 -6 -23z m-40 -100 c-11 -21 -20 -35 -21 -31 0 12 33 78 38 74 2 -2
-6 -21 -17 -43z m599 42 c0 -1 -23 -23 -52 -50 -45 -44 -48 -46 -28 -15 13 19
30 39 38 44 11 7 12 10 2 16 -8 5 -3 7 13 7 15 -1 27 -2 27 -2z m-1284 -125
c53 -28 134 -73 179 -100 46 -28 86 -50 89 -50 4 0 24 -15 44 -34 20 -19 74
-62 120 -96 78 -58 107 -91 100 -110 -2 -4 -39 21 -83 56 -155 125 -371 271
-510 346 -38 21 -62 38 -53 38 10 0 61 -23 114 -50z m1174 16 c0 -2 -8 -10
-17 -17 -16 -13 -17 -12 -4 4 13 16 21 21 21 13z m-529 -33 c-12 -20 -14 -14
-5 12 4 9 9 14 11 11 3 -2 0 -13 -6 -23z m-680 -20 c13 -16 12 -17 -3 -4 -10
7 -18 15 -18 17 0 8 8 3 21 -13z m119 -108 c35 -36 62 -65 59 -65 -2 0 -34 29
-69 65 -35 36 -62 65 -59 65 2 0 34 -29 69 -65z m-130 -86 c183 -35 327 -111
473 -253 80 -78 111 -134 35 -64 -71 66 -87 64 -20 -2 58 -58 62 -65 56 -96
-3 -19 -10 -34 -15 -34 -4 0 -25 21 -46 47 -169 209 -379 359 -553 394 -30 6
-68 15 -85 20 -39 11 77 3 155 -12z m334 -62 c37 -50 48 -80 22 -57 -18 14
-76 103 -76 115 0 11 9 2 54 -58z m-434 2 c42 -26 97 -79 165 -159 17 -19 -8
4 -55 51 -54 55 -107 98 -145 118 -33 17 -49 29 -35 25 14 -3 45 -19 70 -35z
m462 -258 c60 -55 98 -104 98 -126 0 -21 -39 13 -130 114 -113 124 -97 130 32
12z m-222 -1 c6 -11 8 -20 6 -20 -3 0 -10 9 -16 20 -6 11 -8 20 -6 20 3 0 10
-9 16 -20z m-37 -21 c31 -7 62 -18 68 -25 14 -17 7 -17 -61 1 -30 8 -75 15
-100 16 -34 0 -40 2 -25 9 28 12 53 12 118 -1z m86 -60 c58 -16 125 -41 148
-55 51 -29 163 -152 163 -178 0 -14 -25 6 -91 68 -94 92 -142 120 -281 165
-65 21 -82 31 -57 31 7 0 60 -14 118 -31z m-24 -110 c121 -123 125 -130 46
-76 -25 17 -74 43 -110 59 -45 20 -56 28 -34 24 23 -4 32 -2 30 7 -1 6 4 11
11 9 8 -1 11 2 7 8 -3 5 -13 10 -21 10 -8 0 -12 5 -8 11 3 6 -6 24 -22 40 -15
16 -26 29 -23 29 2 0 58 -55 124 -121z m-247 14 c-10 -2 -26 -2 -35 0 -10 3
-2 5 17 5 19 0 27 -2 18 -5z m105 0 c-7 -2 -19 -2 -25 0 -7 3 -2 5 12 5 14 0
19 -2 13 -5z m-61 -90 l73 -36 -30 -10 c-42 -14 -54 -25 -64 -61 -8 -26 -9
-27 -10 -8 -1 13 8 36 18 51 11 15 17 32 13 38 -4 5 -32 25 -62 42 -69 41 -35
32 62 -16z m1842 -55 c17 -24 13 -38 -12 -37 -14 0 -14 2 2 8 18 7 18 8 -5 24
-29 21 -46 22 -29 2 9 -10 9 -15 1 -15 -6 0 -11 5 -11 11 0 6 -8 8 -17 5 -15
-5 -15 -4 1 9 28 21 52 19 70 -7z m-1492 -34 c141 -62 246 -141 248 -185 1
-39 110 -104 156 -93 43 11 70 -4 106 -59 19 -29 38 -64 42 -77 l7 -25 -18 25
c-37 51 -77 92 -105 106 -17 9 -32 14 -34 12 -2 -2 10 -24 26 -48 38 -56 39
-72 3 -28 -38 45 -52 56 -100 79 -23 10 -43 25 -46 32 -4 9 -7 9 -17 0 -19
-17 -56 11 -168 128 -50 53 -115 111 -142 129 -46 29 -58 40 -45 40 2 0 41
-16 87 -36z m-212 -68 c107 -43 150 -68 150 -88 0 -5 -12 0 -26 11 -65 51
-188 64 -282 30 -88 -32 -102 -33 -46 -3 33 17 51 33 49 43 -2 16 22 51 35 51
4 0 58 -20 120 -44z m1587 3 c44 -21 83 -65 83 -93 0 -23 -7 -20 -40 18 -37
42 -107 69 -164 64 -45 -3 -51 7 -12 22 37 15 88 11 133 -11z m-1637 -99 c0
-5 -7 -10 -15 -10 -9 0 -37 -11 -64 -24 l-48 -25 2 24 c3 26 -15 38 -42 29
-15 -5 -16 -4 -3 5 19 14 170 15 170 1z m753 -73 c50 -48 83 -98 107 -162 14
-38 4 -30 -24 18 -14 23 -57 73 -96 112 -38 38 -70 73 -70 77 0 21 35 3 83
-45z m-425 -1 c26 -13 69 -45 96 -70 27 -25 58 -49 69 -52 23 -7 97 -72 97
-85 0 -25 -103 14 -183 70 -82 56 -222 139 -247 146 -14 3 0 -8 30 -25 61 -34
80 -50 63 -50 -7 0 -44 18 -84 39 -81 44 -78 48 39 50 58 1 82 -4 120 -23z
m-249 -67 c74 -28 149 -62 167 -77 37 -30 46 -53 12 -28 -87 64 -179 81 -246
47 -51 -27 -109 -89 -120 -131 -6 -19 -11 -27 -11 -17 -2 46 26 86 117 159 40
32 14 63 -78 94 -39 12 -40 14 -10 9 19 -3 95 -28 169 -56z m30 32 c11 -7 21
-14 21 -16 0 -7 -90 26 -95 35 -6 10 43 -3 74 -19z m1520 -15 c31 -16 61 -56
61 -81 0 -24 -17 -18 -24 9 -10 42 -55 52 -158 33 -93 -16 -94 -17 -197 -105
-57 -49 -68 -42 -20 13 17 19 27 35 22 35 -5 0 -14 -5 -19 -10 -14 -14 -74
-30 -74 -20 0 5 26 24 58 43 135 82 285 117 351 83z m-274 -26 c-3 -5 -11 -10
-16 -10 -6 0 -7 5 -4 10 3 6 11 10 16 10 6 0 7 -4 4 -10z m-305 -3 c0 -2 -16
-19 -36 -38 -33 -31 -35 -31 -19 -6 17 27 55 57 55 44z m525 -91 c58 -26 72
-41 75 -76 4 -43 0 -46 -18 -11 -25 49 -98 85 -187 90 -81 4 -64 19 25 20 38
1 71 -7 105 -23z m-1388 -28 l28 -11 -36 -7 c-20 -3 -49 -16 -66 -28 -43 -30
-102 -99 -119 -136 -9 -22 -13 -25 -13 -11 0 11 6 29 14 39 9 12 15 42 15 74
0 54 0 54 -27 47 -16 -3 -36 -14 -45 -22 -11 -10 -18 -11 -18 -5 0 17 52 41
123 56 80 18 109 19 144 4z m783 -43 c58 -7 141 -42 148 -62 2 -7 -9 -15 -25
-19 -15 -4 -50 -18 -76 -31 -70 -35 -90 -24 -23 12 60 32 73 52 29 40 -44 -11
-84 -32 -142 -76 -53 -40 -54 -40 -47 -14 7 26 5 27 -20 21 -24 -6 -26 -5 -22
18 6 31 -1 32 -34 7 -24 -19 -24 -19 -47 5 -13 13 -32 24 -42 24 -27 0 -24 19
4 24 12 3 51 4 87 3 65 -2 65 -2 76 -37 7 -19 15 -34 18 -33 4 0 38 21 76 45
74 46 80 68 12 44 -45 -16 -72 -12 -72 10 0 8 -4 14 -10 14 -5 0 -10 5 -10 10
0 7 13 9 33 6 17 -3 57 -8 87 -11z m-419 -36 c50 -27 98 -73 87 -84 -6 -6
-121 71 -142 94 -26 29 -14 27 55 -10z m-384 -39 c-88 -43 -125 -71 -143 -112
-9 -21 -19 -36 -21 -34 -3 2 4 24 15 49 21 47 54 75 124 107 68 31 91 22 25
-10z m247 21 c3 -5 15 -7 25 -4 13 3 37 -7 65 -28 25 -18 46 -34 46 -36 0 -2
-25 10 -54 27 -64 35 -80 39 -42 9 14 -11 26 -25 26 -32 0 -6 -12 1 -27 15
-16 14 -39 32 -53 41 -18 13 -20 17 -8 17 9 0 19 -4 22 -9z m-114 -55 c0 -3
-13 -11 -30 -20 -33 -16 -40 -11 -12 10 16 13 42 19 42 10z m-170 -111 c-22
-52 -40 -101 -40 -108 0 -7 -9 -31 -21 -52 -11 -22 -22 -63 -24 -90 -2 -28 -8
-63 -14 -78 l-11 -28 -24 28 c-28 33 -25 45 4 18 19 -18 20 -17 22 1 3 39 5
50 12 92 4 23 12 42 17 42 16 0 10 17 -17 49 -29 35 -22 42 12 10 l22 -21 7
33 c4 18 15 51 25 74 9 22 20 54 23 70 3 17 4 24 1 18 -3 -7 -10 -13 -15 -13
-6 0 -8 4 -4 9 3 5 -9 3 -25 -6 -17 -8 -34 -13 -37 -10 -7 7 87 56 109 57 14
0 11 -15 -22 -95z m195 46 c6 -11 -82 -105 -109 -114 -10 -4 -25 -2 -32 4 -12
10 -13 9 -8 -5 8 -22 -9 -20 -30 3 -17 19 -16 21 9 50 47 52 152 91 170 62z
m-348 -38 c-3 -10 -5 -4 -5 12 0 17 2 24 5 18 2 -7 2 -21 0 -30z m718 24 c26
-20 13 -34 -50 -53 -59 -19 -105 -10 -105 21 0 8 1 15 3 15 1 0 20 7 42 15 51
18 86 19 110 2z m165 -23 c123 -25 139 -58 60 -118 -27 -21 -50 -42 -50 -47 0
-5 -4 -9 -10 -9 -5 0 -10 8 -10 18 0 14 -2 14 -9 3 -7 -12 -13 -12 -24 -3 -7
7 -16 9 -19 6 -9 -8 -65 23 -80 45 -8 11 -26 23 -41 26 -15 4 -27 11 -27 15 0
19 87 72 130 79 3 1 39 -6 80 -15z m-343 -36 l22 -32 -62 -24 c-34 -14 -66
-31 -70 -39 -11 -17 -31 -17 -24 1 4 10 0 12 -14 9 -37 -10 -18 12 41 47 56
33 73 50 50 50 -5 0 -10 5 -10 10 0 23 46 8 67 -22z m579 -12 c27 -20 14 -28
-27 -16 -18 6 -46 10 -61 10 -16 0 -28 5 -28 10 0 15 94 12 116 -4z m-447 -43
c25 -9 59 -31 75 -50 28 -32 28 -34 11 -53 -10 -11 -24 -20 -32 -20 -8 0 -23
-9 -35 -20 -12 -11 -30 -20 -40 -20 -10 0 -18 -6 -18 -14 0 -7 -7 -19 -15 -26
-13 -11 -14 -10 -10 3 4 8 2 18 -4 22 -6 3 -11 1 -11 -5 0 -7 -7 -7 -22 2 -13
7 -25 13 -28 13 -16 2 -50 32 -50 44 0 8 -8 23 -17 34 -17 18 -17 20 22 53 22
19 47 33 56 31 8 -3 24 2 34 9 24 18 28 17 84 -3z m519 -24 c34 -16 62 -32 62
-35 0 -4 -20 -37 -45 -74 -36 -54 -51 -69 -75 -72 -17 -3 -33 -1 -36 4 -3 5
-12 4 -20 -2 -10 -9 -18 -6 -36 14 -13 15 -43 37 -67 49 -72 36 -74 48 -16
108 l50 51 60 -7 c35 -3 87 -19 123 -36z m-914 -25 c8 -32 -10 -57 -24 -34 -5
9 -5 17 1 21 5 3 7 13 3 22 -3 9 -2 17 4 17 5 0 13 -12 16 -26z m-49 -43 c-3
-6 -14 -11 -23 -11 -15 1 -15 2 2 15 21 16 32 13 21 -4z m213 -64 c8 -27 11
-51 9 -54 -3 -2 -17 3 -32 13 -21 14 -25 22 -20 45 6 27 5 29 -25 29 -19 0
-29 4 -25 11 4 5 23 9 43 7 34 -3 37 -6 50 -51z m481 8 c79 -39 121 -83 98
-100 -8 -5 -25 -17 -36 -25 -12 -8 -21 -20 -21 -27 0 -7 -4 -13 -10 -13 -5 0
-10 -7 -10 -15 0 -21 -10 -19 -37 7 -23 21 -23 21 -23 1 0 -20 -26 -51 -35
-42 -2 3 -8 16 -14 29 -6 16 -10 19 -10 9 -1 -9 -7 -22 -15 -28 -11 -9 -15 -8
-20 5 -4 10 -12 14 -22 10 -13 -5 -15 -2 -11 14 3 11 1 18 -4 14 -5 -3 -9 2
-9 10 0 10 -9 16 -25 16 -17 0 -23 4 -19 15 4 10 -3 18 -20 25 -14 5 -26 13
-26 17 1 16 36 51 66 66 17 9 36 23 43 31 22 27 85 19 160 -19z m-595 -16 c-9
-15 -24 -10 -18 6 4 8 1 15 -6 15 -6 0 -8 5 -4 12 5 8 11 6 20 -7 7 -10 11
-22 8 -26z m89 -52 c16 -11 15 -13 -15 -24 -30 -11 -31 -11 -14 2 20 15 20 15
0 15 -10 0 -26 5 -34 10 -11 7 -8 10 16 10 16 0 38 -6 47 -13z m-386 -113 c-7
-7 -47 65 -47 84 1 9 12 -5 26 -31 14 -27 23 -51 21 -53z m128 -3 c3 -5 1 -12
-5 -16 -5 -3 -10 1 -10 9 0 18 6 21 15 7z m-37 -68 c-10 -2 -26 -2 -35 0 -10
3 -2 5 17 5 19 0 27 -2 18 -5z m502 -43 c10 -5 32 -32 49 -59 l30 -50 88 -3
c79 -3 88 -5 91 -23 3 -19 2 -19 -9 -2 -9 16 -22 18 -92 16 l-82 -4 -35 52
c-44 65 -42 64 -82 73 -32 8 -32 8 -5 9 16 1 37 -3 47 -9z m922 -29 c61 -23
98 -60 98 -95 0 -21 -3 -21 -77 -15 -77 7 -216 39 -251 58 -9 5 -33 26 -52 46
l-35 37 130 -5 c101 -3 143 -9 187 -26z m-1632 -72 c0 -5 -9 -9 -20 -9 -22 0
-27 16 -7 23 15 5 27 -1 27 -14z m1044 -276 c62 -101 140 -171 198 -179 18 -2
107 -5 198 -6 123 -2 171 1 190 11 l25 14 -20 -23 c-41 -46 -94 -65 -187 -65
-47 0 -81 -3 -75 -7 21 -13 132 -8 188 8 41 12 66 28 107 70 59 61 68 57 19
-8 -52 -67 -105 -92 -213 -96 -77 -4 -99 -1 -140 17 -76 33 -195 119 -242 175
-48 57 -122 197 -122 230 1 11 9 -3 20 -31 10 -29 35 -79 54 -110z m-137 73
c18 -32 44 -71 58 -87 36 -44 50 -99 38 -151 -8 -31 -11 -36 -12 -18 -1 14
-10 52 -21 85 l-20 60 6 -60 c4 -33 13 -78 20 -100 20 -58 16 -77 -6 -30 l-19
40 -14 -35 c-8 -19 -18 -44 -22 -55 -13 -31 -26 152 -15 195 10 36 14 107 5
98 -3 -2 -11 -42 -19 -89 -11 -64 -14 -74 -15 -42 -1 23 -5 44 -10 47 -5 3 -7
16 -5 29 7 32 -38 -51 -47 -88 l-7 -30 -1 35 c0 19 8 59 18 88 10 29 14 49 8
43 -6 -6 -18 -11 -26 -11 -10 0 -3 12 19 35 41 42 53 44 44 8 -7 -26 -6 -27 9
-11 21 21 21 32 2 48 -13 10 -19 10 -35 -5 -24 -22 -25 -16 -5 31 8 20 20 34
27 32 7 -3 28 -31 45 -62z m-146 -29 c-10 -9 -11 -8 -5 6 3 10 9 15 12 12 3
-3 0 -11 -7 -18z m-26 -47 c-9 -16 -18 -30 -21 -30 -2 0 2 14 11 30 9 17 18
30 21 30 2 0 -2 -13 -11 -30z m101 -130 c-4 -26 -1 -61 10 -95 8 -30 14 -65
12 -77 -2 -14 -12 8 -26 57 -18 65 -20 87 -11 118 13 49 23 47 15 -3z m-644
-57 c13 -1 81 -3 151 -3 107 0 136 3 173 19 70 31 44 10 -42 -34 -69 -36 -85
-40 -149 -40 -63 0 -77 4 -129 35 -31 19 -69 51 -83 70 -26 35 -26 35 15 -5
22 -22 51 -41 64 -42z m14 -48 c46 -23 73 -29 127 -29 61 0 76 4 160 47 85 43
89 45 57 16 -62 -54 -135 -82 -215 -82 -60 0 -80 5 -141 36 -45 23 -83 51
-103 75 -45 57 -38 63 12 10 24 -25 70 -58 103 -73z m591 38 c-3 -10 -5 -4 -5
12 0 17 2 24 5 18 2 -7 2 -21 0 -30z m-102 -33 c10 -11 16 -20 13 -20 -3 0
-13 9 -23 20 -10 11 -16 20 -13 20 3 0 13 -9 23 -20z m451 -45 c-3 -8 -12 -15
-21 -15 -14 0 -13 3 2 26 17 26 30 18 19 -11z m-482 7 c6 -10 -30 -52 -44 -52
-5 0 -24 9 -42 20 l-33 20 30 1 c17 0 39 4 50 9 26 11 33 12 39 2z m1029 -34
c-8 -46 -13 -48 -13 -5 0 21 4 37 10 37 5 0 7 -14 3 -32z m-483 5 c0 -5 -12
-16 -26 -27 -20 -14 -28 -16 -37 -6 -9 9 -7 15 7 26 21 15 56 19 56 7z m-525
-58 c-28 -27 -45 -34 -26 -11 9 11 9 15 -1 18 -8 3 -1 11 17 21 39 20 45 3 10
-28z m-529 3 l29 -33 -35 30 c-19 17 -37 31 -39 33 -2 1 0 2 5 2 6 0 23 -15
40 -32z m1113 28 c-15 -15 -99 -53 -99 -45 0 6 19 19 43 29 39 18 66 26 56 16z
m-287 -40 c-3 -6 -7 -20 -8 -33 -2 -13 -20 -55 -40 -93 l-38 -70 -28 62 c-16
34 -31 74 -34 88 -5 21 -3 20 16 -10 13 -19 27 -47 32 -62 6 -16 13 -26 17
-23 4 2 23 43 41 90 21 54 36 81 41 73 4 -6 5 -17 1 -22z m149 14 c31 -25 12
-26 -21 0 -14 11 -20 20 -14 20 7 0 22 -9 35 -20z m-96 -75 l21 -20 -53 -53
c-29 -29 -53 -50 -53 -47 0 13 23 51 47 76 24 26 24 28 9 57 -18 35 -21 57 -4
27 6 -11 21 -29 33 -40z m-622 -15 c22 0 22 -19 0 -27 -10 -4 -21 -11 -24 -16
-4 -6 -29 1 -60 17 -29 14 -59 26 -66 26 -14 0 -17 12 -7 23 8 8 62 -19 91
-46 34 -31 39 -13 9 33 -35 53 -33 61 7 22 18 -18 41 -32 50 -32z m1132 20 c3
-5 1 -10 -4 -10 -6 0 -11 5 -11 10 0 6 2 10 4 10 3 0 8 -4 11 -10z m-145 -22
c36 4 37 -5 9 -52 -22 -38 -39 -39 -40 -3 0 17 -4 14 -14 -13 -13 -33 -16 -33
-19 0 0 9 -9 14 -21 12 -16 -3 -18 -1 -7 9 22 23 13 28 -23 13 -21 -8 -35 -10
-35 -4 0 5 21 16 46 22 26 7 49 19 52 26 4 11 6 11 13 0 5 -7 21 -12 39 -10z
m220 -12 c14 -19 29 -32 34 -29 5 3 6 -5 3 -18 -19 -79 -27 -99 -46 -120 -11
-12 -21 -29 -21 -36 0 -20 -20 -16 -21 5 0 14 -2 14 -9 -3 -7 -18 -10 -16 -24
18 -13 29 -22 37 -43 37 -25 0 -25 1 -10 18 24 27 21 31 -18 28 -50 -4 -43 23
10 40 22 8 30 12 18 10 -13 -2 -23 0 -23 5 0 5 5 9 11 9 5 0 9 10 7 23 -3 19
1 22 27 18 40 -4 48 -10 35 -26 -9 -11 -7 -12 9 -8 13 3 21 1 21 -8 0 -7 3 -9
6 -6 4 4 2 12 -4 20 -11 13 -6 57 7 57 3 0 17 -16 31 -34z m-412 -73 l54 -58
-28 -3 c-32 -4 -78 42 -71 70 7 26 -12 22 -24 -6 -16 -35 3 -63 52 -76 23 -6
48 -9 56 -5 9 3 -10 -18 -41 -47 -31 -30 -56 -61 -56 -71 0 -20 -4 -21 -31 -7
-10 6 -19 17 -19 25 0 16 -34 38 -44 28 -3 -3 -6 -2 -6 4 0 6 10 13 22 16 12
4 20 9 17 11 -3 3 -22 1 -43 -5 -20 -6 -47 -9 -59 -7 -16 3 -11 7 23 17 76 22
100 38 100 69 0 15 7 39 14 55 14 26 14 27 -13 27 -17 0 -38 -11 -56 -30 -16
-16 -24 -30 -18 -30 6 0 11 -11 11 -24 0 -23 -52 -65 -65 -52 -3 3 1 8 10 12
9 3 13 12 10 20 -4 10 0 12 11 8 9 -3 16 -2 16 4 0 6 -6 12 -12 15 -18 6 43
80 73 88 50 14 63 9 117 -48z m-128 -3 c0 -5 -4 -10 -10 -10 -5 0 -10 5 -10
10 0 6 5 10 10 10 6 0 10 -4 10 -10z m-913 -62 c-2 -13 -4 -5 -4 17 -1 22 1
32 4 23 2 -10 2 -28 0 -40z m96 -21 c-6 -10 -53 32 -53 46 0 4 13 -2 29 -15
15 -13 26 -27 24 -31z m418 19 c11 -14 42 -32 69 -41 56 -19 68 -39 18 -30
-39 6 -53 -1 -67 -35 -10 -25 -10 -25 -11 5 l-2 30 -10 -27 c-14 -39 -25 -35
-33 11 -6 39 -7 39 -43 35 l-37 -5 35 18 c19 10 39 28 45 41 12 27 13 27 36
-2z m795 -65 c44 -60 42 -86 -8 -86 -36 0 -37 -1 -17 -15 l20 -16 -20 -26
c-11 -14 -18 -28 -15 -31 3 -3 1 -8 -5 -12 -6 -3 -12 0 -12 7 -1 7 -5 -5 -8
-27 l-6 -40 -23 38 c-15 22 -31 37 -43 37 -16 0 -19 4 -14 21 6 19 5 20 -16 8
-14 -7 -24 -8 -26 -2 -2 6 -16 8 -31 5 -39 -7 -16 13 33 28 55 17 65 27 64 64
-1 30 -1 30 -9 6 -8 -24 -8 -24 -9 -2 -1 12 -6 22 -12 22 -5 0 -7 -5 -3 -11 5
-9 -1 -10 -20 -5 -18 4 -25 3 -21 -4 3 -5 12 -10 19 -10 8 0 19 -6 25 -14 9
-11 5 -15 -21 -18 -47 -7 -67 0 -61 23 3 10 9 16 14 13 5 -3 9 8 9 24 0 35 13
48 76 72 63 23 95 12 140 -49z m-1258 29 c7 -11 11 -20 9 -20 -2 0 -12 9 -22
20 -10 11 -14 20 -9 20 5 0 15 -9 22 -20z m562 10 c8 -5 11 -10 5 -10 -5 0
-17 5 -25 10 -8 5 -10 10 -5 10 6 0 17 -5 25 -10z m194 -92 c33 -33 76 -91 76
-102 0 -3 -14 -6 -32 -6 -38 0 -34 -7 7 -12 42 -5 42 -22 1 -26 -26 -2 -33 -7
-29 -18 3 -9 -1 -14 -11 -14 -9 0 -19 -7 -23 -16 -4 -12 -10 -10 -25 13 l-20
28 4 -26 c3 -14 -2 -31 -9 -37 -11 -11 -15 -8 -22 10 -5 14 -18 24 -31 25 -30
3 -35 10 -20 28 11 13 7 15 -27 15 -21 0 -48 7 -59 15 -17 13 -15 14 31 9 28
-3 57 -7 66 -8 11 -3 26 12 42 42 25 46 26 46 32 19 7 -27 41 -55 52 -43 3 3
-2 8 -11 12 -9 3 -16 10 -16 16 0 5 5 6 10 3 23 -14 7 34 -20 60 -24 23 -32
26 -44 16 -11 -9 -20 -10 -33 -2 -16 9 -16 11 7 20 44 17 70 12 104 -21z
m-457 -54 c42 -21 71 -40 65 -42 -7 -2 -37 10 -67 26 l-55 30 6 -24 c3 -13 3
-36 -1 -51 -6 -25 -7 -26 -17 -9 -8 15 -12 16 -19 5 -7 -11 -9 -9 -9 7 0 11
-5 25 -11 31 -7 7 -5 21 8 47 9 21 19 33 21 28 1 -5 37 -27 79 -48z m1111 14
c11 -18 22 -42 24 -53 1 -11 9 -25 17 -31 12 -9 11 -21 -9 -78 -24 -67 -39
-84 -41 -43 0 13 -7 1 -16 -28 l-16 -50 -19 43 c-11 25 -26 42 -36 43 -13 0
-11 3 6 9 37 15 25 25 -28 22 -53 -4 -59 2 -35 34 8 10 19 36 25 57 13 45 65
107 90 107 10 0 27 -15 38 -32z m-728 19 c0 -2 -10 -12 -22 -23 l-23 -19 19
23 c18 21 26 27 26 19z m-40 -61 c0 -3 -4 -8 -10 -11 -5 -3 -10 -1 -10 4 0 6
5 11 10 11 6 0 10 -2 10 -4z m405 -86 l64 -59 -36 -7 c-38 -7 -54 5 -85 66 -7
14 -13 27 -14 28 -2 2 -14 -4 -27 -14 -23 -18 -23 -20 -9 -42 13 -19 13 -27 2
-47 -16 -30 -41 -32 -57 -6 -10 16 -9 20 8 24 10 3 19 10 19 16 0 6 -13 4 -35
-5 -30 -12 -35 -12 -35 0 0 35 84 104 128 106 7 0 41 -27 77 -60z m-542 15
c24 -15 47 -53 62 -102 5 -18 3 -22 -10 -17 -9 4 -14 13 -11 21 4 11 1 11 -14
3 -20 -11 -29 3 -10 15 17 11 11 34 -12 46 -21 11 -22 11 -9 -5 16 -20 11 -29
-13 -20 -10 4 -14 13 -11 23 7 23 -35 45 -72 38 -26 -5 -27 -4 -8 10 24 17 72
12 108 -12z m-405 -33 c24 -13 41 -27 38 -29 -3 -3 -25 6 -50 21 -56 33 -70
33 -85 0 -18 -40 -24 -21 -7 20 17 41 12 42 104 -12z m-198 -106 c0 -5 -7 -3
-15 4 -13 11 -15 6 -15 -31 -1 -70 -17 -25 -24 66 l-7 80 30 -55 c17 -30 30
-59 31 -64z m1093 40 c2 -7 22 -7 65 0 63 10 81 2 38 -17 -15 -7 -32 -33 -49
-72 l-25 -62 -14 35 -15 35 -7 -37 c-10 -55 -23 -55 -40 -1 -8 26 -15 40 -15
31 -1 -10 -6 -18 -12 -18 -5 0 -8 4 -4 10 3 5 -5 9 -17 8 -71 -3 -89 10 -40
29 26 10 25 11 -16 12 -30 1 -42 5 -39 14 2 6 10 11 17 9 6 -1 32 -5 56 -9 51
-7 70 5 80 50 6 29 7 30 20 13 7 -11 15 -24 17 -30z m-549 -28 c12 -24 70 -41
121 -35 l30 3 -32 8 c-18 5 -33 12 -33 16 0 11 59 -1 71 -16 9 -11 6 -16 -16
-24 -14 -5 -39 -10 -55 -10 -16 0 -35 -6 -43 -14 -10 -11 -17 -12 -25 -4 -8 8
-10 1 -6 -28 l6 -39 -21 25 c-19 23 -21 24 -22 5 0 -11 -3 -14 -6 -7 -2 6 -9
10 -14 6 -5 -3 -9 14 -9 38 0 30 -3 39 -9 29 -11 -17 -41 -24 -41 -9 0 5 14
15 30 21 17 6 36 24 42 39 13 29 16 29 32 -4z m790 21 c13 -6 32 -28 42 -48
11 -20 25 -44 33 -53 13 -17 11 -18 -27 -18 -22 0 -44 -5 -48 -11 -4 -7 9 -10
40 -8 51 3 72 -7 34 -16 -18 -5 -29 -18 -38 -46 -14 -41 -29 -52 -31 -21 -1 9
-5 -1 -10 -23 -13 -56 -23 -61 -39 -20 -9 22 -19 34 -27 31 -7 -3 -13 -1 -13
4 0 18 -33 40 -61 40 -27 0 -30 3 -23 23 9 30 8 29 38 17 44 -16 54 -12 91 38
41 56 41 58 14 73 -18 9 -20 8 -15 -9 4 -13 1 -22 -9 -26 -12 -4 -14 -12 -10
-27 6 -17 4 -21 -8 -16 -11 4 -14 2 -10 -9 6 -16 -12 -20 -22 -4 -3 6 -15 10
-26 10 -36 0 -12 70 37 109 30 24 52 26 88 10z m-884 -49 c0 -5 -17 -10 -37
-10 -28 0 -34 3 -23 10 20 13 60 13 60 0z m438 -52 c22 -18 48 -50 57 -70 10
-20 28 -47 41 -59 13 -12 21 -26 18 -30 -6 -11 -44 12 -44 27 0 7 -18 28 -40
48 -22 20 -40 40 -40 44 0 5 -13 18 -29 30 -27 20 -31 20 -76 6 -61 -18 -71
-18 -54 2 37 45 113 45 167 2z m-28 -133 c6 -8 36 -19 67 -26 50 -12 54 -14
37 -27 -12 -8 -32 -11 -51 -8 -27 4 -33 2 -33 -14 0 -23 -16 -35 -23 -18 -3 7
-6 -2 -6 -21 -1 -30 -3 -32 -18 -20 -9 8 -19 13 -22 11 -3 -2 -10 10 -15 27
-8 26 -12 30 -34 24 -22 -5 -24 -3 -19 16 5 20 3 21 -46 16 l-52 -5 39 15 c22
8 52 14 67 13 44 -3 69 26 70 86 l1 51 13 -53 c7 -29 18 -59 25 -67z m-592 37
c15 -6 54 -19 87 -29 37 -11 52 -19 39 -21 -11 -2 -40 3 -62 11 l-42 15 6 -24
c7 -27 -13 -34 -22 -9 -13 32 -23 13 -17 -31 l6 -46 -24 13 c-32 19 -39 29
-39 63 0 23 -3 27 -17 21 -43 -18 -54 -14 -16 4 31 16 45 30 55 58 12 34 13
35 16 11 2 -18 12 -29 30 -36z m1244 36 c24 -38 29 -58 12 -51 -7 3 -14 13
-14 23 0 24 -15 33 -28 17 -16 -19 -26 -67 -14 -67 6 0 14 -9 17 -21 6 -17 13
-20 36 -15 15 3 31 1 34 -4 5 -8 -11 -46 -25 -60 -3 -3 -20 -27 -38 -55 l-32
-50 0 35 c-1 31 -2 33 -14 17 -13 -16 -14 -16 -18 8 -3 14 -1 25 3 25 5 0 9 5
9 10 0 19 -29 22 -60 7 -29 -15 -37 -12 -22 8 13 19 61 45 82 45 14 0 20 6 20
23 -1 20 -2 20 -11 5 -5 -10 -18 -18 -27 -18 -10 0 -23 -5 -30 -12 -16 -16
-15 -2 3 60 24 80 86 117 117 70z m-15 -50 c-3 -7 -5 -2 -5 12 0 14 2 19 5 13
2 -7 2 -19 0 -25z m-1332 12 c-11 -5 -29 -9 -40 -9 -17 -1 -17 1 -5 9 8 5 26
9 40 9 23 0 23 -1 5 -9z m1385 -39 c0 -6 -4 -13 -10 -16 -5 -3 -10 1 -10 9 0
9 5 16 10 16 6 0 10 -4 10 -9z m-375 -11 c17 -6 32 -26 46 -56 24 -57 19 -67
-12 -22 -12 18 -24 35 -26 38 -2 2 -8 -2 -13 -10 -8 -12 -10 -12 -16 3 -5 13
-10 15 -19 7 -9 -8 -14 -6 -19 5 -9 23 -50 19 -61 -7 -6 -13 -21 -24 -35 -26
l-25 -4 24 26 c14 14 20 26 15 26 -5 0 0 7 10 15 23 17 92 20 131 5z m345 0
c0 -5 -4 -10 -10 -10 -5 0 -10 5 -10 10 0 6 5 10 10 10 6 0 10 -4 10 -10z
m-903 -77 c27 -18 83 -89 83 -106 0 -6 -16 11 -36 36 -20 26 -50 56 -68 67
-17 11 -25 20 -18 20 7 0 24 -8 39 -17z m496 -19 c-5 -31 -2 -40 17 -54 21
-16 27 -16 59 -4 20 8 43 19 52 24 11 5 21 4 28 -3 19 -19 13 -25 -31 -32 -53
-9 -75 -20 -59 -29 14 -9 15 -63 1 -71 -5 -3 -10 -1 -10 4 0 19 -20 12 -20 -6
-1 -16 -2 -16 -15 1 -15 20 -15 20 -16 0 -1 -10 -1 -34 0 -51 3 -41 -7 -42
-21 -2 -7 19 -15 28 -24 25 -10 -4 -14 2 -14 19 0 13 -4 27 -10 30 -5 3 -10
15 -10 25 0 11 -6 18 -12 16 -7 -3 -32 -7 -56 -10 -58 -8 -46 8 21 30 66 21
76 29 98 81 22 53 30 55 22 7z m-1045 -54 c28 -6 52 -14 52 -17 0 -6 -44 2
-75 13 -18 6 -17 4 5 -21 14 -16 19 -25 12 -21 -10 6 -11 1 -7 -21 l6 -28 -18
21 c-10 12 -24 30 -31 40 -12 17 -12 17 -7 -8 3 -14 7 -34 11 -45 3 -10 -4 -2
-15 17 -11 19 -20 53 -21 74 0 36 1 38 18 24 9 -9 41 -21 70 -28z m505 -41
c39 -17 36 -16 100 -18 42 -1 48 -4 34 -12 -10 -6 -36 -9 -57 -7 -33 3 -37 1
-29 -14 7 -13 4 -18 -11 -23 -12 -4 -27 -2 -34 4 -11 9 -15 3 -20 -29 -4 -29
-10 -39 -19 -33 -6 4 -16 8 -22 8 -5 0 -11 9 -13 20 -7 42 -11 46 -32 35 -20
-11 -30 3 -10 15 6 3 10 11 10 16 0 7 -20 8 -55 4 -38 -5 -55 -4 -55 4 0 7 24
11 65 11 63 0 66 1 85 33 11 17 21 41 22 52 1 11 3 4 5 -17 3 -29 10 -38 36
-49z m1013 14 c-36 -72 -124 -198 -132 -190 -3 3 6 28 20 56 15 28 25 54 24
58 -5 15 96 143 113 143 4 0 -7 -30 -25 -67z m-436 36 c0 -6 -4 -7 -10 -4 -5
3 -10 11 -10 16 0 6 5 7 10 4 6 -3 10 -11 10 -16z m-166 -9 c-22 -9 -29 -6
-20 9 4 6 14 7 23 4 15 -6 14 -7 -3 -13z m413 -70 c11 -25 24 -57 27 -71 5
-24 3 -26 -20 -21 -25 4 -26 7 -22 53 3 27 1 49 -3 49 -25 0 -42 -107 -21
-133 10 -12 20 -13 45 -6 18 5 34 9 36 9 3 0 -11 -15 -30 -34 -18 -19 -47 -48
-63 -66 -22 -24 -31 -29 -38 -18 -7 11 -10 10 -17 -2 -6 -8 -17 -24 -26 -35
-15 -19 -16 -18 -9 15 3 19 13 47 20 62 8 15 14 29 14 33 0 11 -23 4 -52 -17
l-31 -22 7 28 c7 27 5 28 -18 22 -20 -5 -24 -3 -20 8 4 10 17 14 42 12 73 -7
112 24 112 91 0 24 -2 23 -40 -20 -29 -32 -46 -44 -59 -40 -21 5 -18 35 3 32
17 -3 46 12 46 23 0 6 -6 5 -15 -2 -31 -26 -34 -3 -3 34 30 37 82 68 103 63 6
-2 20 -23 32 -47z m-490 -56 c14 -11 30 -30 35 -44 9 -23 8 -23 -16 3 -14 15
-31 28 -38 28 -34 4 -45 6 -75 14 -18 4 -33 12 -33 18 0 16 99 1 127 -19z
m-118 -7 c9 -11 3 -14 -29 -15 -40 -2 -55 13 -22 21 31 8 39 7 51 -6z m-632
-29 c-3 -8 -6 -5 -6 6 -1 11 2 17 5 13 3 -3 4 -12 1 -19z m21 -51 c12 -3 10
-5 -5 -6 -18 -1 -23 4 -22 22 1 15 3 17 6 5 2 -9 12 -19 21 -21z m688 -69 c40
-23 38 -18 20 -53 l-14 -27 -8 24 c-7 19 -10 13 -15 -32 -5 -43 -8 -50 -14
-32 -4 12 -11 22 -15 22 -4 0 -11 -10 -15 -22 -5 -17 -8 -19 -11 -8 -3 8 -10
25 -16 37 -6 12 -8 31 -5 43 5 21 5 21 -14 4 -28 -25 -24 1 7 41 14 18 30 51
36 72 l11 38 9 -43 c8 -34 17 -48 44 -64z m-559 52 c63 -48 70 -61 13 -25 -22
14 -42 25 -44 25 -3 0 4 -19 14 -42 11 -24 20 -51 20 -61 0 -17 -2 -17 -31 3
-29 22 -31 22 -44 4 -13 -18 -14 -17 -15 14 0 37 19 122 28 122 3 0 29 -18 59
-40z m-132 -20 c3 -5 1 -10 -4 -10 -6 0 -11 5 -11 10 0 6 2 10 4 10 3 0 8 -4
11 -10z m740 -20 c3 -5 -1 -10 -9 -10 -8 0 -18 5 -21 10 -3 6 1 10 9 10 8 0
18 -4 21 -10z m75 -8 c0 -5 -12 -14 -27 -21 l-28 -11 24 20 c26 22 31 24 31
12z m90 -44 c-19 -5 -47 -16 -62 -23 -16 -8 -28 -10 -28 -5 0 19 46 40 85 39
l40 -1 -35 -10z m-90 -67 c0 -6 -4 -13 -10 -16 -5 -3 -10 1 -10 9 0 9 5 16 10
16 6 0 10 -4 10 -9z m184 -48 c-9 -21 -24 -47 -35 -58 -19 -19 -19 -19 -19 14
l0 34 -50 -7 c-66 -9 -75 -13 -90 -40 -8 -16 -24 -26 -48 -30 -20 -3 -37 -4
-39 -2 -5 5 69 86 90 99 12 6 56 14 97 18 41 3 83 6 92 7 16 2 16 -1 2 -35z
m-549 17 c28 -6 52 -22 78 -51 44 -49 46 -59 10 -55 -15 2 -37 17 -54 37 -24
29 -34 34 -91 40 -96 11 -148 21 -154 30 -7 12 160 11 211 -1z m-354 -17 c12
-15 12 -16 -6 -9 -11 5 -36 8 -55 7 -26 -1 -31 1 -20 9 23 15 66 12 81 -7z
m216 -50 c-3 -10 -5 -4 -5 12 0 17 2 24 5 18 2 -7 2 -21 0 -30z"/>
<path d="M2030 3537 c0 -8 99 -77 123 -86 15 -6 27 -9 27 -8 0 2 -31 25 -68
50 -62 42 -82 53 -82 44z"/>
<path d="M2285 2920 c3 -5 11 -10 16 -10 6 0 7 5 4 10 -3 6 -11 10 -16 10 -6
0 -7 -4 -4 -10z"/>
<path d="M2510 2760 c8 -5 24 -10 34 -10 26 0 18 6 -19 14 -22 5 -26 4 -15 -4z"/>
<path d="M3035 1531 c-7 -22 14 -73 26 -65 13 8 11 54 -2 54 -6 0 -9 7 -5 15
3 8 1 15 -4 15 -5 0 -11 -8 -15 -19z"/>
<path d="M3267 1393 c-9 -9 -9 -63 1 -63 4 0 8 16 9 35 3 36 1 40 -10 28z"/>
<path d="M3300 1320 c-9 -6 -10 -10 -3 -10 6 0 15 5 18 10 8 12 4 12 -15 0z"/>
<path d="M3240 1312 c0 -7 -8 -12 -17 -12 -15 0 -16 -2 -3 -10 10 -6 17 -4 23
6 5 9 6 18 3 21 -3 4 -6 1 -6 -5z"/>
<path d="M3150 1110 c0 -5 5 -10 10 -10 6 0 10 5 10 10 0 6 -4 10 -10 10 -5 0
-10 -4 -10 -10z"/>
<path d="M3301 4924 c-45 -42 -80 -78 -78 -81 3 -2 42 32 88 77 45 44 80 80
78 80 -3 0 -43 -34 -88 -76z"/>
<path d="M3164 4758 c-55 -83 -113 -195 -164 -316 -33 -77 -40 -87 -109 -140
-103 -80 -101 -78 -101 -93 1 -11 4 -10 13 3 7 9 64 57 127 107 63 50 117 97
121 104 14 26 20 57 11 57 -5 0 -14 -10 -20 -22 l-11 -23 0 23 c-1 32 69 97
170 156 93 55 216 143 239 171 8 10 -23 -11 -70 -47 -47 -35 -105 -75 -130
-89 -25 -13 -53 -30 -62 -38 -14 -11 -21 -11 -32 -2 -10 8 -16 9 -21 1 -3 -5
2 -10 12 -10 15 0 16 -2 3 -10 -24 -15 -29 -12 -24 18 4 26 3 26 -11 8 -10
-13 -11 -23 -5 -31 12 -15 3 -25 -16 -18 -11 4 -10 12 7 44 11 22 24 37 30 33
6 -3 10 0 8 7 -1 8 -1 21 0 29 1 13 3 13 12 0 9 -13 10 -13 6 2 -5 14 12 49
66 136 5 6 6 12 3 12 -2 0 -26 -33 -52 -72z m-74 -202 c0 -2 -7 -9 -15 -16
-12 -10 -15 -10 -15 4 0 9 7 16 15 16 8 0 15 -2 15 -4z"/>
<path d="M3453 4762 c-26 -35 -185 -314 -181 -317 2 -1 23 1 48 5 45 7 45 8 8
9 l-36 1 55 103 c31 56 68 121 84 144 50 75 66 114 22 55z"/>
<path d="M3362 4430 c-37 -15 -212 -306 -212 -353 0 -14 -31 -47 -43 -47 -10
0 -8 45 3 74 6 17 6 26 0 26 -6 0 -10 -3 -10 -8 0 -4 -17 -26 -37 -49 -21 -22
-51 -61 -68 -85 -26 -38 -30 -41 -33 -21 -3 19 -7 21 -23 13 -10 -6 -19 -9
-19 -8 0 2 4 19 10 38 l10 34 -44 -43 c-30 -30 -45 -39 -49 -29 -3 7 -6 -11
-6 -39 -1 -29 1 -53 3 -53 14 0 193 90 246 124 36 23 100 62 142 86 43 24 76
46 74 48 -3 2 -14 -1 -25 -8 -14 -7 -21 -7 -21 0 0 5 3 10 8 10 4 0 7 36 7 80
0 44 4 80 9 80 5 0 7 3 3 6 -9 9 47 88 80 113 31 22 30 24 -5 11z m-101 -173
c-10 -9 -11 -8 -5 6 3 10 9 15 12 12 3 -3 0 -11 -7 -18z"/>
<path d="M2786 4379 c-27 -32 -29 -38 -17 -79 8 -24 8 -24 25 15 19 44 31 95
23 95 -3 0 -17 -14 -31 -31z"/>
<path d="M3000 4311 c-8 -6 -18 -7 -22 -5 -24 15 -178 -104 -178 -137 0 -27
12 -24 51 17 18 20 48 45 64 56 17 12 -1 -9 -39 -46 -58 -56 -67 -70 -62 -91
4 -14 9 -45 13 -70 3 -24 9 -42 13 -40 5 3 6 14 3 25 -3 11 -3 31 1 44 6 26
102 158 155 214 17 18 31 35 31 38 0 7 -14 4 -30 -5z"/>
<path d="M3400 4180 c-18 -12 -2 -12 25 0 13 6 15 9 5 9 -8 0 -22 -4 -30 -9z"/>
<path d="M3394 4141 c-53 -31 -87 -65 -142 -145 -18 -26 -46 -55 -63 -64 -17
-9 -38 -22 -47 -29 -14 -10 -12 -11 13 -4 61 17 87 36 107 75 32 64 76 114
123 142 37 21 76 54 64 54 -2 0 -27 -13 -55 -29z"/>
<path d="M3320 4044 c-17 -20 -29 -42 -26 -50 3 -8 0 -14 -7 -15 -7 0 -3 -4 8
-9 16 -7 17 -9 3 -9 -9 -1 -20 -6 -24 -13 -4 -6 -3 -8 3 -5 6 4 46 12 89 18
71 10 131 28 96 29 -7 0 -10 4 -7 10 4 6 -1 7 -11 3 -12 -4 -15 -3 -10 5 4 7
2 12 -4 12 -6 0 -9 4 -6 9 4 5 -4 7 -16 4 -19 -4 -20 -3 -8 7 11 9 12 13 2 17
-6 2 -10 9 -6 14 8 14 -20 11 -35 -3 -11 -10 -13 -10 -7 0 13 23 -2 12 -34
-24z"/>
<path d="M3410 3932 c-47 -26 -108 -80 -222 -196 -157 -160 -158 -160 -184
-240 -15 -45 -29 -88 -32 -96 -4 -8 14 1 37 19 45 36 87 95 137 191 30 60 101
169 137 212 17 21 41 31 110 48 48 11 95 20 104 20 8 0 32 -17 51 -37 19 -21
30 -28 24 -16 -18 33 -62 63 -91 63 -44 0 -53 19 -23 46 37 32 28 29 -48 -14z
m-3 -48 c-3 -3 -12 -4 -19 -1 -8 3 -5 6 6 6 11 1 17 -2 13 -5z"/>
<path d="M2684 3869 l-20 -54 37 -95 c20 -52 39 -103 43 -113 5 -17 16 -18
133 -12 71 4 141 11 157 17 25 10 210 217 201 226 -9 9 -57 -29 -142 -109 -51
-49 -100 -89 -108 -89 -21 0 -7 25 40 70 20 19 55 57 78 84 l41 48 -40 -20
c-21 -11 -79 -47 -129 -80 -49 -33 -92 -57 -95 -55 -8 8 117 113 220 185 35
25 -4 11 -50 -17 -139 -86 -162 -97 -170 -85 -10 17 -3 38 27 73 33 41 28 50
-14 28 -45 -23 -106 -81 -139 -133 -13 -21 -25 -38 -27 -38 -1 0 -3 37 -4 83
-1 45 -6 95 -11 111 -8 30 -8 29 -28 -25z"/>
<path d="M3050 3262 c0 -5 21 -21 48 -35 26 -14 59 -37 74 -51 14 -14 28 -22
31 -18 2 4 2 1 1 -6 -2 -7 1 -23 7 -36 9 -19 6 -33 -14 -75 -13 -28 -20 -51
-16 -51 10 0 60 96 54 102 -3 3 1 5 8 5 6 0 21 4 32 9 18 7 18 6 -3 -20 -15
-20 -22 -41 -21 -70 l2 -41 6 42 c7 42 27 76 41 68 4 -2 19 10 34 27 26 32 35
55 16 43 -6 -4 -5 4 2 19 13 31 -4 55 -57 80 -36 17 -245 24 -245 8z m278 -52
c32 -30 27 -38 -5 -9 -16 13 -30 25 -32 27 -2 1 0 2 5 2 6 0 20 -9 32 -20z"/>
<path d="M3068 3143 c-29 -34 -29 -41 3 -57 38 -19 42 -20 33 -4 -4 7 -3 8 5
4 6 -4 9 -11 6 -16 -10 -16 21 -29 51 -21 24 7 29 13 27 37 -4 58 -90 97 -125
57z"/>
<path d="M3280 3060 c0 -5 5 -10 10 -10 6 0 10 5 10 10 0 6 -4 10 -10 10 -5 0
-10 -4 -10 -10z"/>
<path d="M3155 3030 c3 -5 8 -10 11 -10 2 0 4 5 4 10 0 6 -5 10 -11 10 -5 0
-7 -4 -4 -10z"/>
<path d="M3265 2970 c-10 -11 -14 -20 -9 -20 5 0 15 9 22 20 7 11 11 20 9 20
-2 0 -12 -9 -22 -20z"/>
<path d="M3296 2955 c-9 -26 -7 -32 5 -12 6 10 9 21 6 23 -2 3 -7 -2 -11 -11z"/>
<path d="M3308 2923 c-10 -2 -18 -9 -18 -14 0 -6 10 -5 23 2 37 20 36 23 -5
12z"/>
<path d="M3329 2889 c-23 -19 -23 -20 -2 -10 12 6 25 16 28 21 10 16 -1 12
-26 -11z"/>
<path d="M3301 2814 c-13 -15 -26 -22 -30 -17 -3 7 -15 7 -28 2 -36 -13 -27
-24 18 -23 37 1 43 5 55 33 16 38 14 38 -15 5z"/>
<path d="M3342 2795 c0 -16 2 -22 5 -12 2 9 2 23 0 30 -3 6 -5 -1 -5 -18z"/>
<path d="M3403 2808 c-15 -18 -35 -58 -29 -58 2 0 13 16 25 35 20 35 22 46 4
23z"/>
<path d="M3421 2764 c-7 -22 -11 -64 -9 -94 l4 -55 2 63 c1 35 7 72 13 83 6
11 9 25 7 31 -2 6 -10 -7 -17 -28z"/>
<path d="M2265 2729 c-4 -6 -3 -15 3 -21 6 -6 11 -4 15 6 7 18 -9 31 -18 15z"/>
<path d="M2813 2665 c-17 -19 -5 -25 41 -23 36 1 37 2 9 5 -17 2 -33 10 -35
18 -2 11 -5 11 -15 0z"/>
<path d="M1712 1960 c0 -14 2 -19 5 -12 2 6 2 18 0 25 -3 6 -5 1 -5 -13z"/>
<path d="M3425 1899 c-4 -6 -5 -12 -2 -15 2 -3 7 2 10 11 7 17 1 20 -8 4z"/>
<path d="M3447 1853 c-4 -3 -7 -13 -7 -22 1 -13 3 -13 11 2 11 19 8 33 -4 20z"/>
<path d="M418 1833 c-10 -3 -18 -9 -18 -14 0 -12 37 -12 45 0 7 12 -5 19 -27
14z"/>
<path d="M3441 1693 c-1 -7 -10 -22 -21 -33 -14 -14 -17 -25 -12 -41 7 -19 10
-17 26 19 10 22 16 46 13 54 -4 9 -6 10 -6 1z"/>
<path d="M3386 1485 c-9 -26 -7 -32 5 -12 6 10 9 21 6 23 -2 3 -7 -2 -11 -11z"/>
<path d="M3493 1238 c-62 -90 -89 -142 -72 -136 7 2 19 17 28 34 21 38 71 123
89 152 8 12 12 22 9 22 -2 0 -27 -33 -54 -72z"/>
<path d="M3170 420 c-34 -28 -35 -29 -15 -44 11 -9 23 -16 27 -16 3 0 13 -3
22 -6 9 -3 16 -1 16 5 0 6 -6 11 -13 11 -7 0 -18 5 -25 12 -9 9 -6 18 15 40
35 37 18 36 -27 -2z"/>
</g>
</svg>
